<?xml version="1.0" encoding="utf-8"?>
<!-- Generator: Adobe Illustrator 22.0.1, SVG Export Plug-In . SVG Version: 6.00 Build 0)  -->
<svg version="1.1" id="Layer_1" xmlns="http://www.w3.org/2000/svg" xmlns:xlink="http://www.w3.org/1999/xlink" x="0px" y="0px"
	 viewBox="0 0 185.1 200.4" style="enable-background:new 0 0 185.1 200.4;" xml:space="preserve">
<style type="text/css">
	.st0{fill:#F5F5F5;}
	.st1{fill:#D1D3D4;}
	.st2{fill:#EB8F01;}
	.st3{fill:#FFBB51;}
	.st4{fill:#E8E9EA;}
	.st5{fill-rule:evenodd;clip-rule:evenodd;fill:#C3C5C7;}
	.st6{fill-rule:evenodd;clip-rule:evenodd;fill:#FFBB51;}
	.st7{fill-rule:evenodd;clip-rule:evenodd;fill:#FFFFFF;}
	.st8{fill:#DDDDDD;}
</style>
<g>
	<path class="st0" d="M185.1,10.8c0,4.7-40.6,8.6-90.8,8.6c-50.1,0-90.8-3.8-90.8-8.6c0,0,16.7,71,18,91.2
		c1.9,28.7,5.3,83.8,5.3,83.8s13.2,6.5,30.7,10c13.3,2.7,28.5,3.4,38.6,3.4c47.1,0.2,67.9-12.5,67.9-12.5s3.8-65.7,3.8-85.8
		C167.9,80.8,185.1,10.8,185.1,10.8L185.1,10.8L185.1,10.8z"/>
	<path class="st1" d="M185,11.2c0.1-0.3,0.1-0.4,0.1-0.4h0C185.1,10.9,185.1,11.1,185,11.2L185,11.2z"/>
	<path class="st1" d="M3.7,11.2c-0.1-0.1-0.1-0.3-0.1-0.4C3.6,10.8,3.6,10.9,3.7,11.2L3.7,11.2z"/>
	<path class="st2" d="M26.2,57.7c0-2.3,29.4-8.9,68.1-8.9c38.7,0,68.1,6.6,68.1,8.9c0,0-2.3,25.8-3.4,37.1
		c-1.6,16.3-0.9,30.4-6.8,42.7c-6.9,14.5-23.4,28.6-57.5,28.6c-29,0-48.5-12.3-54.6-29.6c-6.1-17.3-6.4-28.1-7.7-41.4
		C31.5,82.9,26.2,57.7,26.2,57.7L26.2,57.7z"/>
	<path class="st3" d="M26.2,56.9c0,3.4,30.6,8.2,68,8.2s67.8-3.9,67.8-7.7c0-5.2-30.3-9-67.8-9S26.2,51.7,26.2,56.9L26.2,56.9z"/>
	<path class="st4" d="M185,10.5l-98.3-0.3L0.2,10.6C11,45.8,16,62.4,19.4,87.1c3.7,27.2,2.7,41.8,3.9,59.7c1.7,26.2,3.2,39,3.2,39
		s19.8,14.1,68.8,14.5c49.7,0.4,68.9-13.8,68.9-13.8s1.2-10.6,2.5-28.4c1.3-18.1,3.6-40.4,4-71.4C170.9,66.6,175.5,42.2,185,10.5
		L185,10.5z M174,14.6c-7.8,17.6-13,39-15.2,70.7c-0.9,13.4-0.8,45.7-12.2,59.6c-9.9,11.9-22.3,21-49.7,21.1
		c-27.6,0.1-40.4-8.4-50.1-20.2c-10.8-13-12.1-39.1-14.5-58C29.6,67.4,21.3,34.2,14,15l72.7-1.2L174,14.6L174,14.6z"/>
	<path class="st5" d="M174,14.6l11-4.1c-9.6,31.8-14.1,56.2-14.4,76.3c-0.4,31.1-2.7,53.3-4,71.4c-1.3,17.8-2.5,28.4-2.5,28.4
		S149,197.7,111,200c-4.9,0.3-15.9,0.4-15.9,0.4s18.4-2.8,33.1-7.7c10.7-3.6,17.4-9.2,18.3-18.7c0.8-8.4-16.3-7.9-29.8-7.1
		c-8.8,0.5-19.4-0.6-19.4-0.6c7.3-0.3,15.6-1.4,22.3-3.4c7.1-2.1,12.8-5.2,13.6-5.7c5.3-3.4,9.4-7.6,13.2-12.2
		c11.4-13.9,11.3-46.2,12.2-59.6C161,53.5,166.1,32.2,174,14.6L174,14.6z"/>
	<path class="st6" d="M47.3,106.6c-1.7-9.4-2.8-20.3-2.8-29.9c0-7,14.9-5.1,24.7-2.7c17.3,4.2,12.8,20.4,12.5,38.6
		c-0.3,19.5,7.9,35.6,3.5,39.1c-4.5,3.4-21.4,1.1-30.3-18.5C50.3,123,49,115.6,47.3,106.6L47.3,106.6z"/>
	<path class="st7" d="M35.8,24.3c0,0,4,22.3,5.3,31.5c2.7,19.2,4.1,42.1,4.4,49.1c0.1,1.2,1,2.1,2.2,2.1c0.2,0,0.4,0,0.6,0
		c0.6,0,1.2-0.2,1.6-0.7c0.4-0.4,0.7-1,0.7-1.6c-0.1-9.2-0.3-43.7-1-50.9c-1.1-11.1-2.9-28.1-2.9-28.1L35.8,24.3L35.8,24.3z"/>
	<path class="st7" d="M49.1,143.3c-0.4,0-0.8,0.1-1.1,0.4c-0.3,0.3-0.4,0.7-0.4,1.1c0.3,5.7,1.1,25,1.3,30.2c0,0.7,0.6,1.3,1.3,1.4
		c0.5,0,1.1,0.1,1.7,0.1c0.4,0,0.8-0.1,1.1-0.4c0.3-0.3,0.4-0.6,0.4-1c0-5.6,0-24.8,0-30c0-0.7-0.6-1.4-1.3-1.4
		C51.2,143.5,50,143.4,49.1,143.3L49.1,143.3z"/>
	<path class="st8" d="M185.1,10.8c0,6-41.4,10.8-92.6,10.8C41.4,21.7,0,16.8,0,10.8C0,4.9,41.4,0,92.6,0
		C143.7,0,185.1,4.9,185.1,10.8L185.1,10.8z"/>
	<path class="st0" d="M92.6,17c-44.2,0-80.1-2.7-80.1-6.1c0-3.4,35.8-6.1,80.1-6.1c44.2,0,80.1,2.7,80.1,6.1
		C172.6,14.2,136.8,17,92.6,17L92.6,17z"/>
</g>
</svg>
